<?xml version="1.0" standalone="no"?><!DOCTYPE svg PUBLIC "-//W3C//DTD SVG 1.1//EN" "http://www.w3.org/Graphics/SVG/1.1/DTD/svg11.dtd"><svg class="icon" width="200px" height="200.00px" viewBox="0 0 1024 1024" version="1.1" xmlns="http://www.w3.org/2000/svg"><path fill="#ffffff" d="M593.92 102.4H266.24a81.944576 81.944576 0 0 0-81.92 81.92v655.36a81.944576 81.944576 0 0 0 81.92 81.92h491.52a81.944576 81.944576 0 0 0 81.92-81.92V348.16l-245.76-245.76z m-40.96 61.44l225.28 225.28h-225.28V163.84z m-122.88 421.0688H348.16v181.8624h81.92V839.68H266.24v-327.68h163.84v72.9088z m241.664 213.8112v-84.7872h-114.688V798.72l-122.88-122.88 122.88-122.88v83.968h114.688V552.96l122.88 122.88-122.88 122.88z"  /></svg>