<?xml version="1.0" standalone="no"?><!DOCTYPE svg PUBLIC "-//W3C//DTD SVG 1.1//EN" "http://www.w3.org/Graphics/SVG/1.1/DTD/svg11.dtd"><svg class="icon" width="200px" height="200.00px" viewBox="0 0 1024 1024" version="1.1" xmlns="http://www.w3.org/2000/svg"><path fill="#ffffff" d="M950.351251 877.792115v73.103943H73.103942v-73.103943h877.247309m0-73.103942H73.103942a73.103942 73.103942 0 0 0-73.103942 73.103942v73.103943a73.103942 73.103942 0 0 0 73.103942 73.103942h877.247309a73.103942 73.103942 0 0 0 73.103942-73.103942v-73.103943a73.103942 73.103942 0 0 0-73.103942-73.103942zM408.468278 105.083445a371.185267 371.185267 0 0 1 73.103942 34.358853c86.262652 52.634838 127.931899 134.328494 127.931899 249.832723v73.103942h59.214194l-126.104301 154.432078L413.585554 457.444447a94.304086 94.304086 0 0 0 36.551971-23.393262A93.207526 93.207526 0 0 0 476.089425 366.064519c-4.020717-107.280035-25.9519-193.542687-67.621147-261.529354M239.780931 0.544807a18.275986 18.275986 0 0 0-8.955233 36.551971c115.321469 61.955591 166.128709 167.225268 172.159784 332.257418A19.372545 19.372545 0 0 1 383.795697 389.275021h-79.683297a19.189785 19.189785 0 0 0-14.803548 31.617455l226.804981 277.794981a36.551971 36.551971 0 0 0 54.827957 0L798.29505 420.892476a19.189785 19.189785 0 0 0-14.986308-31.434696h-99.604121C683.704621 66.521115 396.040608 8.769001 240.87749 0.544807z" /></svg>