<?xml version="1.0" standalone="no"?><!DOCTYPE svg PUBLIC "-//W3C//DTD SVG 1.1//EN" "http://www.w3.org/Graphics/SVG/1.1/DTD/svg11.dtd"><svg class="icon" width="200px" height="196.73px" viewBox="0 0 1041 1024" version="1.1" xmlns="http://www.w3.org/2000/svg"><path fill="#ffffff" d="M984.549414 910.79397H891.926298v-840.469012C891.926298 30.874372 861.051926 0 821.60134 0H219.551089c-37.735343 0-70.324958 30.874372-70.324958 70.324958v840.469012H58.318258C25.728643 910.79397 0 933.092127 0 960.536013v13.721943c0 27.443886 25.728643 49.742044 58.318258 49.742044h924.515913c32.589615 0 58.318258-22.298157 58.318258-49.742044V960.536013c0-27.443886-25.728643-49.742044-56.603015-49.742043zM307.028476 154.371859h428.81072v554.023451l-428.81072 192.107203V154.371859z"  /><path fill="#ffffff" d="M408.227806 521.433836c-13.721943 0-24.0134-10.291457-24.013401-24.0134v-48.026801c0-13.721943 10.291457-24.0134 24.013401-24.0134H497.420436c13.721943 0 24.0134 10.291457 24.0134 24.0134 0 13.721943-10.291457 24.0134-24.0134 24.0134h-65.17923V497.420436c0 13.721943-10.291457 24.0134-24.0134 24.0134z"  /></svg>