<?xml version="1.0" standalone="no"?><!DOCTYPE svg PUBLIC "-//W3C//DTD SVG 1.1//EN" "http://www.w3.org/Graphics/SVG/1.1/DTD/svg11.dtd"><svg t="1649121949226" class="icon" viewBox="0 0 1025 1024" version="1.1" xmlns="http://www.w3.org/2000/svg" p-id="3971" xmlns:xlink="http://www.w3.org/1999/xlink" width="200.1953125" height="200"><defs><style type="text/css"></style></defs><path d="M118.907104 481.964642h372.191578a30.611379 30.611379 0 0 0 0-61.14047H118.001929l38.675667-30.364513a30.52909 30.52909 0 0 0 4.690453-39.992285 30.117647 30.117647 0 0 0-19.5847-12.672453 30.52909 30.52909 0 0 0-23.287688 5.266474L11.520411 427.736419a34.890389 34.890389 0 0 0-4.772741 4.855031 30.446802 30.446802 0 0 0 4.937319 42.872388l106.975249 84.592735a30.52909 30.52909 0 0 0 18.679524 6.418515l9.380907-0.822886v-1.398907a30.52909 30.52909 0 0 0 20.819029-32.504018 30.282224 30.282224 0 0 0-11.355834-20.407586z" fill="#d81e06" p-id="3972"></path><path d="M1025.316618 86.485374V78.667952a57.602057 57.602057 0 0 0-8.228865-28.225008 86.567663 86.567663 0 0 0-78.338798-50.525233H392.27001A86.649952 86.649952 0 0 0 305.784635 86.403086v255.094825h61.140469V86.814529A25.67406 25.67406 0 0 1 392.516876 61.222758h482.129219l-212.63388 98.746384c-28.636451 12.507875-45.999357 19.996143-45.999357 54.804243v570.589521H393.092896a25.756348 25.756348 0 0 1-25.67406-25.591771v-197.492768h-61.140469v197.492768a86.814529 86.814529 0 0 0 86.485375 86.485374h223.249116v120.223722a58.178078 58.178078 0 0 0 58.095789 57.602058h0.740598a30.282224 30.282224 0 0 0 15.799421-5.184185l293.029894-189.839923 2.797814-2.139505a63.115397 63.115397 0 0 1 10.039216-6.912247 46.163934 46.163934 0 0 0 28.554162-43.201543v-15.634844-1.23433z m-61.716489 680.280296l-0.905176 2.962392a102.284796 102.284796 0 0 0-13.248473 9.216329L676.98875 955.371263V219.381549l4.608164-1.974927 283.072967-130.921248v672.792029a24.686596 24.686596 0 0 1-1.069752 7.488267z" fill="#d81e06" p-id="3973"></path></svg>