<?xml version="1.0" standalone="no"?><!DOCTYPE svg PUBLIC "-//W3C//DTD SVG 1.1//EN" "http://www.w3.org/Graphics/SVG/1.1/DTD/svg11.dtd"><svg class="icon" width="200px" height="200.00px" viewBox="0 0 1024 1024" version="1.1" xmlns="http://www.w3.org/2000/svg"><path fill="#ffffff" d="M641.01 223.5h-362c-17.67 0-32 14.33-32 32s14.33 32 32 32h362c17.67 0 32-14.33 32-32s-14.33-32-32-32zM542.77 400.75H279.01c-17.67 0-32 14.33-32 32s14.33 32 32 32h263.76c17.67 0 32-14.33 32-32s-14.33-32-32-32zM369.76 578h-90.75c-17.67 0-32 14.33-32 32s14.33 32 32 32h90.75c17.67 0 32-14.33 32-32s-14.33-32-32-32z"  /><path fill="#ffffff" d="M411.42 960h-198.4c-61.76 0-112-50.24-112-112V176c0-61.76 50.24-112 112-112H707c61.76 0 112 50.24 112 112v242.21c0 17.67-14.33 32-32 32s-32-14.33-32-32V176c0-26.47-21.53-48-48-48H213.02c-26.47 0-48 21.53-48 48v672c0 26.47 21.53 48 48 48h198.4c17.67 0 32 14.33 32 32s-14.33 32-32 32z"  /><path fill="#ffffff" d="M763.6 587.52a159.576 159.576 0 0 1 34.88 19.36c-2.28 21.53 2.79 43.74 15.09 63.54a84.113 84.113 0 0 0 26.66 26.76c6.81 4.27 13.97 7.71 21.34 10.27 1.7 9.4 2.55 18.97 2.55 28.65 0 7.44-0.51 14.84-1.52 22.14-6.69 2.48-13.18 5.68-19.39 9.57-10.63 6.67-19.75 15.76-26.36 26.3-13.3 21.18-18.23 45.42-14.73 68.48a158.782 158.782 0 0 1-38.55 22.12C746.92 871.51 726.04 864 704 864c-21.99 0-42.84 7.49-59.5 20.64a158.259 158.259 0 0 1-41.23-24.32c2.88-22.18-2.1-45.2-14.83-65.71-6.61-10.65-15.68-19.82-26.24-26.51-5.26-3.33-10.73-6.17-16.35-8.49-1.14-7.75-1.71-15.6-1.71-23.51 0-9.75 0.87-19.4 2.59-28.86 6.33-2.45 12.48-5.54 18.36-9.26 10.57-6.68 19.65-15.82 26.27-26.44 12.02-19.29 17.16-41.09 15.25-62.29a159.282 159.282 0 0 1 36.57-21.14C659.85 601.43 680.81 609 703 609c22.56 0 43.81-7.79 60.6-21.48m-14.55-70.43c-7.28 0-14.18 3.93-17.61 10.58C726.12 537.96 715.39 545 703 545c-12.3 0-22.99-6.94-28.34-17.13-3.43-6.53-10.27-10.33-17.45-10.33-1.55 0-3.13 0.18-4.68 0.54-42.43 10.01-80.21 32.08-109.5 62.4-5.99 6.2-7.28 15.47-3.41 23.17 4.82 9.59 4.95 21.93-2.59 34.04a19.583 19.583 0 0 1-6.14 6.18c-6.72 4.25-13.5 6.11-19.85 6.12-8.61 0.01-16.23 5.73-19 13.89-7.71 22.66-11.9 46.95-11.9 72.22 0 22.86 3.43 44.92 9.8 65.69 2.52 8.2 9.93 14.09 18.51 14.2 6.24 0.08 12.89 1.96 19.48 6.15 2.49 1.58 4.59 3.71 6.14 6.21 7.84 12.64 7.33 25.52 1.87 35.26-4.2 7.49-3.26 16.86 2.52 23.21 30.23 33.21 70.3 57.29 115.61 67.64 1.48 0.34 2.97 0.5 4.45 0.5 7.09 0 13.86-3.76 17.32-10.17C681.25 934.8 691.83 928 704 928c12.18 0 22.77 6.81 28.18 16.83 3.48 6.46 10.3 10.15 17.45 10.15 1.54 0 3.1-0.17 4.64-0.52 44.14-10.09 83.32-33.22 113.25-65.13 6.3-6.71 7.05-16.74 2.22-24.58-6.11-9.91-6.96-23.4 1.33-36.6 1.56-2.48 3.69-4.56 6.17-6.11 6.69-4.2 13.45-6.04 19.77-6.04 0.37 0 0.74 0.01 1.11 0.02 0.24 0.01 0.49 0.01 0.73 0.01 8.89 0 16.83-5.59 19.46-14.14 6.39-20.8 9.83-42.89 9.83-65.79 0-25.89-4.4-50.75-12.48-73.88-2.8-8.01-10.39-13.3-18.8-13.3-0.36 0-0.73 0.01-1.09 0.03-0.58 0.03-1.17 0.05-1.76 0.05-6.32 0-13.07-1.84-19.76-6.04-2.55-1.6-4.71-3.76-6.29-6.31-7.77-12.51-7.35-25.26-2.05-34.97 4.26-7.79 3.15-17.41-3.12-23.7-29.46-29.55-67.11-50.92-109.27-60.41-1.5-0.32-2.99-0.48-4.47-0.48z"  /><path fill="#ffffff" d="M704.13 701c19.32 0 35.04 15.72 35.04 35.04s-15.72 35.04-35.04 35.04-35.04-15.72-35.04-35.04S684.81 701 704.13 701m0-64c-54.7 0-99.04 44.34-99.04 99.04s44.34 99.04 99.04 99.04 99.04-44.34 99.04-99.04S758.83 637 704.13 637z"  /></svg>